PathFileType	4	(X/Y/Z)	36_1_rein_30_p1_0-496_filt_butterworth.trc
DataRate	CameraRate	NumFrames	NumMarkers	Units	OrigDataRate	OrigDataStartFrame	OrigNumFrames
58.0	58.0	4	27	m	58.0	0	496
Frame#	Time	RHip			RKnee			RAnkle			RBigToe			RSmallToe			RHeel			LHip			LKnee			LAnkle			LBigToe			LSmallToe			LHeel			Neck			Head			Nose			RShoulder			RElbow			RWrist			RThumb			RIndex			RPinky			LShoulder			LElbow			LWrist			LThumb			LIndex			LPinky			
		X1	Y1	Z1	X2	Y2	Z2	X3	Y3	Z3	X4	Y4	Z4	X5	Y5	Z5	X6	Y6	Z6	X7	Y7	Z7	X8	Y8	Z8	X9	Y9	Z9	X10	Y10	Z10	X11	Y11	Z11	X12	Y12	Z12	X13	Y13	Z13	X14	Y14	Z14	X15	Y15	Z15	X16	Y16	Z16	X17	Y17	Z17	X18	Y18	Z18	X19	Y19	Z19	X20	Y20	Z20	X21	Y21	Z21	X22	Y22	Z22	X23	Y23	Z23	X24	Y24	Z24	X25	Y25	Z25	X26	Y26	Z26	X27	Y27	Z27	
0	0.0	0.31734490944784727	0.8933616811614823	0.7015088579279632	0.3521130435480897	0.4442511615326533	0.7327537875484749	0.3794801944976683	-0.015208388212643267	0.7723302774862751	0.3302935979403924	-0.011279676409741347	0.5216863767592229	0.39978601893265214	-0.0329859946421316	0.5809425831734696	0.3542126823561097	-0.086123407548251	0.8417946567524004	0.11076215437547623	0.8526221642258501	0.7113422030518255	0.14144861020491795	0.41316543607379275	0.7227220389677298	0.1771792044218723	-0.006445798816650597	0.7419520491256409	0.19095343829749947	-0.031043583272449368	0.5473869489036772	0.1372000127336084	-0.044351486105320505	0.5789640908072821	0.1961398214195968	-0.08627994668406559	0.8030970844272572	0.16409602817917546	1.493833153963431	0.6577375223984645	0.1402391308569735	1.773196723984989	0.6014951385078452	0.13945698875507487	1.6091559442029444	0.5372156666558541	0.3458651013129419	1.4210153097025418	0.7150052782645112	0.40103724464492363	1.1502616301996047	0.6611661720559893	0.2819997504686178	0.9322894315601276	0.5310652775003049	0.19201499319712884	0.8343555888089376	0.5131308255489692	0.19639344854732552	0.7953090033399585	0.5221261384556924	0.21782790214377246	0.7910716315428319	0.537169523613931	0.005667536292567667	1.4047696691344875	0.6978457827152774	0.020307709172800517	1.1321762503237423	0.6140200143892569	0.16618117493921492	0.909703241764609	0.5374749917400743	0.24830915549806595	0.844739391193684	0.5150343812914787	0.24332378071792526	0.8117805818256287	0.5119255101881341	0.21155672362699277	0.7957276346572333	0.5274715536092112	
1	0.0172413793103448	0.3184589221519039	0.8935687478943555	0.698016643688668	0.3521188311588257	0.4434647568702329	0.7333172197727601	0.3793755500063436	-0.017165798163777335	0.772527919638599	0.33245777121320585	-0.015938890994502283	0.5275603546859364	0.4015628421360352	-0.028685981707488435	0.5750877411577712	0.35439449831217645	-0.08663535411035803	0.841745931200826	0.11087653577685602	0.8517536842478194	0.7111242219992113	0.141497765781272	0.41326138442245386	0.7227892094410877	0.17813955374134394	-0.00478186906040573	0.7393670520655866	0.1918286468214616	-0.033079633014764534	0.5530867948174358	0.13689554860320924	-0.04252342368790066	0.5799794966972062	0.1951854718534531	-0.08380309978229357	0.7997680015866581	0.16371773725601968	1.4949451175680297	0.6564826729782426	0.13787721696008043	1.772898214788209	0.5948722020916608	0.13768749525363608	1.6084620537862844	0.5365680838667156	0.3458730337508528	1.4210312517702233	0.7148758449085142	0.4006918253548095	1.1488354508086287	0.6609270770406832	0.28205786208554984	0.9325399886196136	0.5310769219030678	0.19151471110505278	0.8366967280786514	0.5145925001812901	0.19493655760601727	0.7944050384696238	0.525223047278679	0.21949648834183302	0.7889456904995931	0.5400303668919377	0.005764140514871701	1.4047974271940042	0.6977343861771975	0.019842111945450127	1.1343555521817446	0.6135237915456362	0.1653957476179496	0.9095718081259155	0.539817735861361	0.2490898898838696	0.8514884467099606	0.5118266352928522	0.243418704960311	0.8119472418573683	0.5123943287961086	0.21269826145749077	0.7975645799944451	0.527461382887087	
2	0.0344827586206896	0.3194249269962947	0.8938214802308502	0.6949424528037108	0.3522182454743521	0.4427509444492296	0.7340984947527962	0.37928758558148773	-0.01870733179792569	0.7726791361495862	0.33371716423933195	-0.018517098289588668	0.5314380922152405	0.4027499631582017	-0.025752978144114667	0.5710295742127781	0.35454733155381574	-0.0870618212425202	0.8417023089840908	0.1109751027066636	0.8510237134468464	0.710935462138666	0.14153123765661996	0.41325105278766217	0.722843375500322	0.17896345310974282	-0.0034030868445376616	0.737220388867636	0.1926651674361373	-0.0337593448749501	0.5560257817457166	0.13667894696173125	-0.04127008769396546	0.5806805688896834	0.1944726880036822	-0.08197211208002941	0.7972249112408616	0.16386160955217782	1.4949079738767197	0.6569364870809291	0.13625948067534474	1.7726901177050667	0.5929189980159019	0.13651121184390336	1.607260375870529	0.5362028007146755	0.34588009327783226	1.4210357443892556	0.7147915059685297	0.40052887457545255	1.147839770128326	0.6607877459603131	0.28208943006602744	0.9323204566619198	0.5310611026944063	0.1912827802498135	0.8379879080048582	0.5149939800953223	0.19412213076046142	0.7936401223752956	0.5278281326161981	0.22088503958708297	0.7881982189479961	0.5411246576258556	0.005827727063215275	1.4048294832488861	0.6976680916710841	0.01957695204068242	1.1356879381965979	0.6132076782913363	0.1651587990983589	0.9095400802429054	0.5405440920060702	0.2494332056117901	0.8557213802723467	0.5082049911344215	0.24304849212183582	0.8121576057576835	0.5122471276541748	0.2139496179594491	0.7988442588216461	0.5275049701594109	
3	0.0517241379310344	0.32025286232888656	0.8941128169287725	0.6922609016500852	0.35239759166471163	0.4421050968446357	0.7350582309191493	0.37921555705938864	-0.01986911543332809	0.7727883133141558	0.3342566713480246	-0.019434966271896482	0.5336942993004888	0.40345375884501605	-0.02394846861194401	0.5684650291286233	0.3546733849190285	-0.08740946078623116	0.8416634200535867	0.11105895732823698	0.850421699245922	0.7107737654983175	0.1415504982098869	0.4131459348748975	0.722885337109513	0.17966121010633715	-0.0022868041397168803	0.735477078664714	0.19344524133264648	-0.03336239988119987	0.5567854860651315	0.13653683474444844	-0.040490400270028995	0.58111624056324	0.19398057082666365	-0.08072984153338461	0.7954002413086473	0.1643877731253331	1.4940281090731262	0.6586464202844742	0.13526721220113855	1.7725566664055803	0.5945247150470544	0.13581874284262765	1.6057576341641049	0.5360636457671855	0.34588664649818945	1.421030907720623	0.7147458122312802	0.40055098446809473	1.1472063040504117	0.6607323518785346	0.2820993192870601	0.9317602753674886	0.5310274526978925	0.1912531862080972	0.8384155884011638	0.5146666910042748	0.19382277853324242	0.7930376083778543	0.5299538542514155	0.2220230116876694	0.7885601856573968	0.5407757610904786	0.005864649721029957	1.4048609093986864	0.6976392482823177	0.019476020804896445	1.1363053487143508	0.6130490624047368	0.16533497407768305	0.9095927809404435	0.5400544633434894	0.24941487179374136	0.8579000914327205	0.504608866034436	0.2423241069427106	0.8123453328208913	0.5117694624456944	0.21521036106622204	0.7996542918387789	0.5275937180999677	
